<svg width="20" height="14" viewBox="0 0 20 14" fill="none" xmlns="http://www.w3.org/2000/svg">
<path d="M1.41183 0.0384235C0.74009 0.170669 0.169889 0.746324 0.0410076 1.43089C-0.0136692 1.71871 -0.0136692 12.275 0.0410076 12.5628C0.173794 13.2629 0.74009 13.8269 1.44308 13.9592C1.73208 14.0136 18.2679 14.0136 18.5569 13.9592C19.2599 13.8269 19.8262 13.2629 19.959 12.5628C20.0137 12.275 20.0137 1.71871 19.959 1.43089C19.8262 0.730765 19.2599 0.166779 18.5569 0.0345345C18.2953 -0.0121403 1.66569 -0.0121403 1.41183 0.0384235ZM14.5499 4.56976C12.2066 6.89183 11.0467 8.01591 10.8983 8.10537C10.3515 8.43598 9.64851 8.43598 9.10174 8.10537C8.95333 8.01591 7.7934 6.89183 5.45011 4.56976L2.01328 1.1664H10H17.9867L14.5499 4.56976ZM4.66901 5.43713L6.2312 6.99685L4.27846 8.94552C3.20445 10.0151 2.06796 11.1392 1.75161 11.4387L1.1736 11.9833V6.99685V2.01043L2.14216 2.94392C2.67331 3.45735 3.8098 4.58143 4.66901 5.43713ZM18.8186 9.49394L18.8069 11.9949L16.2878 9.49394L13.7688 6.99685L16.2878 4.49975L18.8069 2.00265L18.8186 4.49975C18.8225 5.87276 18.8225 8.12093 18.8186 9.49394ZM7.48096 8.2454C8.18785 8.9533 8.59793 9.23723 9.17985 9.41615C9.42589 9.49006 9.55868 9.50561 10 9.50561C10.6014 9.50561 10.9139 9.43171 11.3669 9.18667C11.7028 9.00775 11.8785 8.85995 12.4487 8.30763L12.9252 7.84088L13.8547 8.73937C14.3663 9.23334 15.5028 10.3535 16.3855 11.2326L17.9867 12.8312H10L2.01328 12.8273L4.52451 10.3419C5.90705 8.97274 7.04745 7.85255 7.06307 7.85255C7.0787 7.85255 7.26616 8.02758 7.48096 8.2454Z" fill="#EDEDED"/>
</svg>
