<svg width="24" height="24" viewBox="0 0 24 24" fill="none" xmlns="http://www.w3.org/2000/svg">
<path d="M21 10V2H3V14.1C3 14.81 3.14001 15.4 3.42001 15.86C3.88001 16.62 4.72 17.01 5.91 17.01H18.1C20 17.01 21 16.01 21 14.11" stroke="url(#paint0_linear_1_253)" stroke-width="1.5" stroke-miterlimit="10" stroke-linecap="round" stroke-linejoin="round"/>
<path d="M2 2H22" stroke="url(#paint1_linear_1_253)" stroke-width="1.5" stroke-miterlimit="10" stroke-linecap="round" stroke-linejoin="round"/>
<path d="M8 22L12 20V17" stroke="url(#paint2_linear_1_253)" stroke-width="1.5" stroke-miterlimit="10" stroke-linecap="round" stroke-linejoin="round"/>
<path d="M16 22L12 20" stroke="url(#paint3_linear_1_253)" stroke-width="1.5" stroke-miterlimit="10" stroke-linecap="round" stroke-linejoin="round"/>
<path d="M7.5 11L10.65 8.37C10.9 8.16 11.23 8.22 11.4 8.5L12.6 10.5C12.77 10.78 13.1 10.83 13.35 10.63L16.5 8" stroke="url(#paint4_linear_1_253)" stroke-width="1.5" stroke-miterlimit="10" stroke-linecap="round" stroke-linejoin="round"/>
<defs>
<linearGradient id="paint0_linear_1_253" x1="12" y1="2" x2="12" y2="17.01" gradientUnits="userSpaceOnUse">
<stop offset="0.25" stop-color="#C7C7C7"/>
<stop offset="1" stop-color="#6B6B6B"/>
</linearGradient>
<linearGradient id="paint1_linear_1_253" x1="12" y1="2" x2="12" y2="3" gradientUnits="userSpaceOnUse">
<stop offset="0.25" stop-color="#C7C7C7"/>
<stop offset="1" stop-color="#6B6B6B"/>
</linearGradient>
<linearGradient id="paint2_linear_1_253" x1="10" y1="17" x2="10" y2="22" gradientUnits="userSpaceOnUse">
<stop offset="0.25" stop-color="#C7C7C7"/>
<stop offset="1" stop-color="#6B6B6B"/>
</linearGradient>
<linearGradient id="paint3_linear_1_253" x1="14" y1="20" x2="14" y2="22" gradientUnits="userSpaceOnUse">
<stop offset="0.25" stop-color="#C7C7C7"/>
<stop offset="1" stop-color="#6B6B6B"/>
</linearGradient>
<linearGradient id="paint4_linear_1_253" x1="12" y1="8" x2="12" y2="11" gradientUnits="userSpaceOnUse">
<stop offset="0.25" stop-color="#C7C7C7"/>
<stop offset="1" stop-color="#6B6B6B"/>
</linearGradient>
</defs>
</svg>
